STARTFONT 2.1
COMMENT
COMMENT Converted from OpenType font "Xuong.otf" by "otf2bdf 3.0".
COMMENT
FONT -FreeType-Xuong-Bold-R-Normal--11-80-100-100-P-60-ISO10646-1
SIZE 8 100 100
FONTBOUNDINGBOX 12 14 -1 -2
STARTPROPERTIES 19
FOUNDRY "FreeType"
FAMILY_NAME "Xuong"
WEIGHT_NAME "Bold"
SLANT "R"
SETWIDTH_NAME "Normal"
ADD_STYLE_NAME ""
PIXEL_SIZE 11
POINT_SIZE 80
RESOLUTION_X 100
RESOLUTION_Y 100
SPACING "P"
AVERAGE_WIDTH 60
CHARSET_REGISTRY "ISO10646"
CHARSET_ENCODING "1"
FONT_ASCENT 9
FONT_DESCENT 1
COPYRIGHT "-FreeType-Xuong-Bold-R-Normal--11-80-100-100-P-60-ISO10646-1"
_OTF_FONTFILE "Xuong.otf"
_OTF_PSNAME "Xuong"
ENDPROPERTIES
CHARS 445
STARTCHAR 0000
ENCODING 0
SWIDTH 0 0
DWIDTH 0 0
BBX 0 0 0 0
BITMAP
ENDCHAR
STARTCHAR 000D
ENCODING 13
SWIDTH 180 0
DWIDTH 2 0
BBX 0 0 0 0
BITMAP
ENDCHAR
STARTCHAR 0020
ENCODING 32
SWIDTH 180 0
DWIDTH 2 0
BBX 0 0 0 0
BITMAP
ENDCHAR
STARTCHAR 0021
ENCODING 33
SWIDTH 90 0
DWIDTH 1 0
BBX 2 8 0 0
BITMAP
C0
C0
C0
C0
80
80
00
C0
ENDCHAR
STARTCHAR 0022
ENCODING 34
SWIDTH 180 0
DWIDTH 2 0
BBX 3 3 0 5
BITMAP
A0
A0
A0
ENDCHAR
STARTCHAR 0023
ENCODING 35
SWIDTH 720 0
DWIDTH 8 0
BBX 8 8 0 0
BITMAP
12
16
7F
7F
24
FE
28
68
ENDCHAR
STARTCHAR 0024
ENCODING 36
SWIDTH 540 0
DWIDTH 6 0
BBX 6 10 0 -1
BITMAP
30
78
FC
E0
70
38
1C
FC
7C
30
ENDCHAR
STARTCHAR 0025
ENCODING 37
SWIDTH 540 0
DWIDTH 6 0
BBX 6 8 0 0
BITMAP
64
A8
E8
10
10
2C
2C
4C
ENDCHAR
STARTCHAR 0026
ENCODING 38
SWIDTH 630 0
DWIDTH 7 0
BBX 8 8 0 0
BITMAP
38
7C
6C
7C
CA
CF
FE
7B
ENDCHAR
STARTCHAR 0027
ENCODING 39
SWIDTH 90 0
DWIDTH 1 0
BBX 1 3 0 5
BITMAP
80
80
80
ENDCHAR
STARTCHAR 0028
ENCODING 40
SWIDTH 180 0
DWIDTH 2 0
BBX 2 8 0 0
BITMAP
40
C0
80
80
80
80
C0
40
ENDCHAR
STARTCHAR 0029
ENCODING 41
SWIDTH 180 0
DWIDTH 2 0
BBX 2 8 0 0
BITMAP
80
40
40
40
40
40
40
C0
ENDCHAR
STARTCHAR 002A
ENCODING 42
SWIDTH 360 0
DWIDTH 4 0
BBX 4 4 0 4
BITMAP
20
F0
70
30
ENDCHAR
STARTCHAR 002B
ENCODING 43
SWIDTH 360 0
DWIDTH 4 0
BBX 5 4 0 2
BITMAP
20
20
F8
20
ENDCHAR
STARTCHAR 002C
ENCODING 44
SWIDTH 180 0
DWIDTH 2 0
BBX 2 2 0 0
BITMAP
40
80
ENDCHAR
STARTCHAR 002D
ENCODING 45
SWIDTH 360 0
DWIDTH 4 0
BBX 5 1 0 4
BITMAP
F8
ENDCHAR
STARTCHAR 002E
ENCODING 46
SWIDTH 90 0
DWIDTH 1 0
BBX 2 1 0 0
BITMAP
C0
ENDCHAR
STARTCHAR 002F
ENCODING 47
SWIDTH 180 0
DWIDTH 2 0
BBX 3 9 0 -1
BITMAP
20
20
40
40
40
40
80
80
80
ENDCHAR
STARTCHAR 0030
ENCODING 48
SWIDTH 540 0
DWIDTH 6 0
BBX 6 8 0 0
BITMAP
78
FC
CC
CC
CC
CC
FC
78
ENDCHAR
STARTCHAR 0031
ENCODING 49
SWIDTH 360 0
DWIDTH 4 0
BBX 4 8 0 0
BITMAP
30
70
F0
30
30
30
30
30
ENDCHAR
STARTCHAR 0032
ENCODING 50
SWIDTH 540 0
DWIDTH 6 0
BBX 6 8 0 0
BITMAP
7C
FC
CC
18
30
70
FC
FC
ENDCHAR
STARTCHAR 0033
ENCODING 51
SWIDTH 450 0
DWIDTH 5 0
BBX 5 8 0 0
BITMAP
F8
78
08
78
78
08
78
78
ENDCHAR
STARTCHAR 0034
ENCODING 52
SWIDTH 540 0
DWIDTH 6 0
BBX 6 8 0 0
BITMAP
18
38
78
78
D8
FC
7C
18
ENDCHAR
STARTCHAR 0035
ENCODING 53
SWIDTH 450 0
DWIDTH 5 0
BBX 5 8 0 0
BITMAP
78
F8
C0
F8
F8
08
78
F8
ENDCHAR
STARTCHAR 0036
ENCODING 54
SWIDTH 540 0
DWIDTH 6 0
BBX 6 8 0 0
BITMAP
78
FC
CC
C0
FC
CC
FC
FC
ENDCHAR
STARTCHAR 0037
ENCODING 55
SWIDTH 450 0
DWIDTH 5 0
BBX 5 8 0 0
BITMAP
F8
78
18
30
30
30
60
60
ENDCHAR
STARTCHAR 0038
ENCODING 56
SWIDTH 540 0
DWIDTH 6 0
BBX 6 8 0 0
BITMAP
78
FC
CC
EC
7C
CC
FC
78
ENDCHAR
STARTCHAR 0039
ENCODING 57
SWIDTH 540 0
DWIDTH 6 0
BBX 6 8 0 0
BITMAP
7C
FC
CC
FC
7C
0C
FC
7C
ENDCHAR
STARTCHAR 003A
ENCODING 58
SWIDTH 90 0
DWIDTH 1 0
BBX 2 6 0 0
BITMAP
C0
C0
00
00
00
C0
ENDCHAR
STARTCHAR 003B
ENCODING 59
SWIDTH 90 0
DWIDTH 1 0
BBX 2 7 0 -1
BITMAP
C0
C0
00
00
80
C0
80
ENDCHAR
STARTCHAR 003C
ENCODING 60
SWIDTH 360 0
DWIDTH 4 0
BBX 4 5 0 1
BITMAP
30
60
80
E0
30
ENDCHAR
STARTCHAR 003D
ENCODING 61
SWIDTH 360 0
DWIDTH 4 0
BBX 5 3 0 2
BITMAP
F8
00
F8
ENDCHAR
STARTCHAR 003E
ENCODING 62
SWIDTH 360 0
DWIDTH 4 0
BBX 4 6 0 1
BITMAP
C0
70
10
30
C0
80
ENDCHAR
STARTCHAR 003F
ENCODING 63
SWIDTH 450 0
DWIDTH 5 0
BBX 6 8 0 0
BITMAP
78
FC
CC
18
30
30
00
30
ENDCHAR
STARTCHAR 0040
ENCODING 64
SWIDTH 720 0
DWIDTH 8 0
BBX 8 9 0 -1
BITMAP
7F
C1
DD
D5
D5
DD
F7
C0
FC
ENDCHAR
STARTCHAR 0041
ENCODING 65
SWIDTH 540 0
DWIDTH 6 0
BBX 6 8 0 0
BITMAP
38
78
68
6C
4C
7C
CC
C4
ENDCHAR
STARTCHAR 0042
ENCODING 66
SWIDTH 540 0
DWIDTH 6 0
BBX 6 8 0 0
BITMAP
F8
FC
CC
FC
FC
CC
FC
F8
ENDCHAR
STARTCHAR 0043
ENCODING 67
SWIDTH 540 0
DWIDTH 6 0
BBX 6 8 0 0
BITMAP
F8
FC
C0
C0
C0
C0
FC
F8
ENDCHAR
STARTCHAR 0044
ENCODING 68
SWIDTH 540 0
DWIDTH 6 0
BBX 6 8 0 0
BITMAP
F8
FC
CC
CC
CC
CC
FC
F8
ENDCHAR
STARTCHAR 0045
ENCODING 69
SWIDTH 540 0
DWIDTH 6 0
BBX 6 8 0 0
BITMAP
F8
FC
C0
F0
F0
C0
FC
F8
ENDCHAR
STARTCHAR 0046
ENCODING 70
SWIDTH 450 0
DWIDTH 5 0
BBX 5 8 0 0
BITMAP
F8
F8
C0
C0
F8
C0
C0
C0
ENDCHAR
STARTCHAR 0047
ENCODING 71
SWIDTH 540 0
DWIDTH 6 0
BBX 6 8 0 0
BITMAP
F8
FC
C0
C0
DC
CC
FC
FC
ENDCHAR
STARTCHAR 0048
ENCODING 72
SWIDTH 540 0
DWIDTH 6 0
BBX 6 8 0 0
BITMAP
CC
CC
CC
FC
FC
CC
CC
CC
ENDCHAR
STARTCHAR 0049
ENCODING 73
SWIDTH 180 0
DWIDTH 2 0
BBX 2 8 0 0
BITMAP
C0
C0
C0
C0
C0
C0
C0
C0
ENDCHAR
STARTCHAR 004A
ENCODING 74
SWIDTH 450 0
DWIDTH 5 0
BBX 5 8 0 0
BITMAP
78
78
18
18
18
18
F8
78
ENDCHAR
STARTCHAR 004B
ENCODING 75
SWIDTH 540 0
DWIDTH 6 0
BBX 6 8 0 0
BITMAP
CC
DC
D8
F0
F0
D8
D8
CC
ENDCHAR
STARTCHAR 004C
ENCODING 76
SWIDTH 360 0
DWIDTH 4 0
BBX 5 8 0 0
BITMAP
C0
C0
C0
C0
C0
C0
F8
F0
ENDCHAR
STARTCHAR 004D
ENCODING 77
SWIDTH 630 0
DWIDTH 7 0
BBX 7 8 0 0
BITMAP
6E
EE
FE
DA
DA
DA
C2
C2
ENDCHAR
STARTCHAR 004E
ENCODING 78
SWIDTH 540 0
DWIDTH 6 0
BBX 6 8 0 0
BITMAP
4C
EC
EC
FC
DC
DC
CC
C8
ENDCHAR
STARTCHAR 004F
ENCODING 79
SWIDTH 540 0
DWIDTH 6 0
BBX 6 8 0 0
BITMAP
7C
FC
C4
C4
C4
C4
FC
7C
ENDCHAR
STARTCHAR 0050
ENCODING 80
SWIDTH 540 0
DWIDTH 6 0
BBX 6 8 0 0
BITMAP
F8
FC
CC
CC
F8
C0
C0
C0
ENDCHAR
STARTCHAR 0051
ENCODING 81
SWIDTH 630 0
DWIDTH 7 0
BBX 7 8 0 0
BITMAP
7C
FC
C4
C4
C4
C4
FE
7E
ENDCHAR
STARTCHAR 0052
ENCODING 82
SWIDTH 540 0
DWIDTH 6 0
BBX 6 8 0 0
BITMAP
F8
FC
CC
F8
F8
D8
CC
CC
ENDCHAR
STARTCHAR 0053
ENCODING 83
SWIDTH 540 0
DWIDTH 6 0
BBX 6 8 0 0
BITMAP
78
FC
E0
70
38
1C
FC
7C
ENDCHAR
STARTCHAR 0054
ENCODING 84
SWIDTH 450 0
DWIDTH 5 0
BBX 6 8 0 0
BITMAP
78
FC
30
30
30
30
30
30
ENDCHAR
STARTCHAR 0055
ENCODING 85
SWIDTH 540 0
DWIDTH 6 0
BBX 6 8 0 0
BITMAP
C4
C4
C4
C4
C4
C4
FC
7C
ENDCHAR
STARTCHAR 0056
ENCODING 86
SWIDTH 540 0
DWIDTH 6 0
BBX 6 8 0 0
BITMAP
C4
CC
4C
4C
48
68
78
38
ENDCHAR
STARTCHAR 0057
ENCODING 87
SWIDTH 810 0
DWIDTH 9 0
BBX 9 8 0 0
BITMAP
C080
4180
6D80
6D80
6D80
7F00
3700
3300
ENDCHAR
STARTCHAR 0058
ENCODING 88
SWIDTH 540 0
DWIDTH 6 0
BBX 6 8 0 0
BITMAP
C4
6C
6C
38
38
6C
6C
C4
ENDCHAR
STARTCHAR 0059
ENCODING 89
SWIDTH 450 0
DWIDTH 5 0
BBX 5 8 0 0
BITMAP
C8
D8
58
70
30
20
20
20
ENDCHAR
STARTCHAR 005A
ENCODING 90
SWIDTH 540 0
DWIDTH 6 0
BBX 6 8 0 0
BITMAP
F8
FC
18
38
30
60
7C
7C
ENDCHAR
STARTCHAR 005B
ENCODING 91
SWIDTH 180 0
DWIDTH 2 0
BBX 3 9 0 -1
BITMAP
E0
80
80
80
80
80
80
C0
E0
ENDCHAR
STARTCHAR 005C
ENCODING 92
SWIDTH 180 0
DWIDTH 2 0
BBX 3 9 0 -1
BITMAP
80
80
C0
40
40
40
60
20
20
ENDCHAR
STARTCHAR 005D
ENCODING 93
SWIDTH 180 0
DWIDTH 2 0
BBX 3 9 0 -1
BITMAP
E0
60
60
60
60
60
60
E0
E0
ENDCHAR
STARTCHAR 005E
ENCODING 94
SWIDTH 540 0
DWIDTH 6 0
BBX 5 4 1 4
BITMAP
60
50
D0
98
ENDCHAR
STARTCHAR 005F
ENCODING 95
SWIDTH 360 0
DWIDTH 4 0
BBX 5 1 0 0
BITMAP
F8
ENDCHAR
STARTCHAR 0060
ENCODING 96
SWIDTH 360 0
DWIDTH 4 0
BBX 3 1 1 8
BITMAP
E0
ENDCHAR
STARTCHAR 0061
ENCODING 97
SWIDTH 540 0
DWIDTH 6 0
BBX 6 8 0 0
BITMAP
38
78
68
6C
4C
7C
CC
C4
ENDCHAR
STARTCHAR 0062
ENCODING 98
SWIDTH 540 0
DWIDTH 6 0
BBX 6 8 0 0
BITMAP
F8
FC
CC
FC
FC
CC
FC
F8
ENDCHAR
STARTCHAR 0063
ENCODING 99
SWIDTH 540 0
DWIDTH 6 0
BBX 6 8 0 0
BITMAP
F8
FC
C0
C0
C0
C0
FC
F8
ENDCHAR
STARTCHAR 0064
ENCODING 100
SWIDTH 540 0
DWIDTH 6 0
BBX 6 8 0 0
BITMAP
F8
FC
CC
CC
CC
CC
FC
F8
ENDCHAR
STARTCHAR 0065
ENCODING 101
SWIDTH 540 0
DWIDTH 6 0
BBX 6 8 0 0
BITMAP
F8
FC
C0
F0
F0
C0
FC
F8
ENDCHAR
STARTCHAR 0066
ENCODING 102
SWIDTH 450 0
DWIDTH 5 0
BBX 5 8 0 0
BITMAP
F8
F8
C0
C0
F8
C0
C0
C0
ENDCHAR
STARTCHAR 0067
ENCODING 103
SWIDTH 540 0
DWIDTH 6 0
BBX 6 8 0 0
BITMAP
F8
FC
C0
C0
DC
CC
FC
FC
ENDCHAR
STARTCHAR 0068
ENCODING 104
SWIDTH 540 0
DWIDTH 6 0
BBX 6 8 0 0
BITMAP
CC
CC
CC
FC
FC
CC
CC
CC
ENDCHAR
STARTCHAR 0069
ENCODING 105
SWIDTH 180 0
DWIDTH 2 0
BBX 2 8 0 0
BITMAP
C0
C0
C0
C0
C0
C0
C0
C0
ENDCHAR
STARTCHAR 006A
ENCODING 106
SWIDTH 450 0
DWIDTH 5 0
BBX 5 8 0 0
BITMAP
78
78
18
18
18
18
F8
78
ENDCHAR
STARTCHAR 006B
ENCODING 107
SWIDTH 540 0
DWIDTH 6 0
BBX 6 8 0 0
BITMAP
CC
DC
D8
F0
F0
D8
D8
CC
ENDCHAR
STARTCHAR 006C
ENCODING 108
SWIDTH 360 0
DWIDTH 4 0
BBX 5 8 0 0
BITMAP
C0
C0
C0
C0
C0
C0
F8
F0
ENDCHAR
STARTCHAR 006D
ENCODING 109
SWIDTH 630 0
DWIDTH 7 0
BBX 7 8 0 0
BITMAP
6E
EE
FE
DA
DA
DA
C2
C2
ENDCHAR
STARTCHAR 006E
ENCODING 110
SWIDTH 540 0
DWIDTH 6 0
BBX 6 8 0 0
BITMAP
4C
EC
EC
FC
DC
DC
CC
C8
ENDCHAR
STARTCHAR 006F
ENCODING 111
SWIDTH 540 0
DWIDTH 6 0
BBX 6 8 0 0
BITMAP
7C
FC
C4
C4
C4
C4
FC
7C
ENDCHAR
STARTCHAR 0070
ENCODING 112
SWIDTH 540 0
DWIDTH 6 0
BBX 6 8 0 0
BITMAP
F8
FC
CC
CC
F8
C0
C0
C0
ENDCHAR
STARTCHAR 0071
ENCODING 113
SWIDTH 630 0
DWIDTH 7 0
BBX 7 8 0 0
BITMAP
7C
FC
C4
C4
C4
C4
FE
7E
ENDCHAR
STARTCHAR 0072
ENCODING 114
SWIDTH 540 0
DWIDTH 6 0
BBX 6 8 0 0
BITMAP
F8
FC
CC
F8
F8
D8
CC
CC
ENDCHAR
STARTCHAR 0073
ENCODING 115
SWIDTH 540 0
DWIDTH 6 0
BBX 6 8 0 0
BITMAP
78
FC
E0
70
38
1C
FC
7C
ENDCHAR
STARTCHAR 0074
ENCODING 116
SWIDTH 450 0
DWIDTH 5 0
BBX 6 8 0 0
BITMAP
78
FC
30
30
30
30
30
30
ENDCHAR
STARTCHAR 0075
ENCODING 117
SWIDTH 540 0
DWIDTH 6 0
BBX 6 8 0 0
BITMAP
C4
C4
C4
C4
C4
C4
FC
7C
ENDCHAR
STARTCHAR 0076
ENCODING 118
SWIDTH 540 0
DWIDTH 6 0
BBX 6 8 0 0
BITMAP
C4
CC
4C
4C
48
68
78
38
ENDCHAR
STARTCHAR 0077
ENCODING 119
SWIDTH 810 0
DWIDTH 9 0
BBX 9 8 0 0
BITMAP
C080
4180
6D80
6D80
6D80
7F00
3700
3300
ENDCHAR
STARTCHAR 0078
ENCODING 120
SWIDTH 540 0
DWIDTH 6 0
BBX 6 8 0 0
BITMAP
C4
6C
6C
38
38
6C
6C
C4
ENDCHAR
STARTCHAR 0079
ENCODING 121
SWIDTH 450 0
DWIDTH 5 0
BBX 5 8 0 0
BITMAP
C8
D8
58
70
30
20
20
20
ENDCHAR
STARTCHAR 007A
ENCODING 122
SWIDTH 540 0
DWIDTH 6 0
BBX 6 8 0 0
BITMAP
F8
FC
18
38
30
60
7C
7C
ENDCHAR
STARTCHAR 007B
ENCODING 123
SWIDTH 270 0
DWIDTH 3 0
BBX 3 9 0 -1
BITMAP
60
40
40
40
C0
40
40
60
60
ENDCHAR
STARTCHAR 007C
ENCODING 124
SWIDTH 90 0
DWIDTH 1 0
BBX 1 9 0 -1
BITMAP
80
80
80
80
80
80
80
80
80
ENDCHAR
STARTCHAR 007D
ENCODING 125
SWIDTH 270 0
DWIDTH 3 0
BBX 3 9 0 -1
BITMAP
C0
40
40
60
20
40
40
C0
C0
ENDCHAR
STARTCHAR 007E
ENCODING 126
SWIDTH 450 0
DWIDTH 5 0
BBX 5 1 0 4
BITMAP
F8
ENDCHAR
STARTCHAR 00A1
ENCODING 161
SWIDTH 90 0
DWIDTH 1 0
BBX 2 8 0 0
BITMAP
C0
C0
00
80
C0
C0
C0
C0
ENDCHAR
STARTCHAR 00A2
ENCODING 162
SWIDTH 540 0
DWIDTH 6 0
BBX 6 10 0 -1
BITMAP
20
F8
FC
C0
C0
C0
C0
FC
F8
20
ENDCHAR
STARTCHAR 00A3
ENCODING 163
SWIDTH 450 0
DWIDTH 5 0
BBX 5 8 0 0
BITMAP
78
F8
40
F8
60
60
F8
F8
ENDCHAR
STARTCHAR 00A4
ENCODING 164
SWIDTH 270 0
DWIDTH 3 0
BBX 3 3 0 3
BITMAP
60
60
80
ENDCHAR
STARTCHAR 00A5
ENCODING 165
SWIDTH 450 0
DWIDTH 5 0
BBX 5 8 0 0
BITMAP
C8
D8
58
70
78
20
78
20
ENDCHAR
STARTCHAR 00A6
ENCODING 166
SWIDTH 90 0
DWIDTH 1 0
BBX 1 8 0 0
BITMAP
80
80
80
80
00
80
80
80
ENDCHAR
STARTCHAR 00A7
ENCODING 167
SWIDTH 360 0
DWIDTH 4 0
BBX 4 8 0 0
BITMAP
70
50
60
F0
50
30
90
70
ENDCHAR
STARTCHAR 00A8
ENCODING 168
SWIDTH 270 0
DWIDTH 3 0
BBX 3 1 0 8
BITMAP
A0
ENDCHAR
STARTCHAR 00A9
ENCODING 169
SWIDTH 720 0
DWIDTH 8 0
BBX 8 8 0 0
BITMAP
FF
81
9D
91
91
9D
81
FF
ENDCHAR
STARTCHAR 00AB
ENCODING 171
SWIDTH 450 0
DWIDTH 5 0
BBX 5 5 0 1
BITMAP
28
50
90
78
20
ENDCHAR
STARTCHAR 00AC
ENCODING 172
SWIDTH 540 0
DWIDTH 6 0
BBX 6 3 0 1
BITMAP
FC
04
04
ENDCHAR
STARTCHAR 00AE
ENCODING 174
SWIDTH 360 0
DWIDTH 4 0
BBX 4 5 0 3
BITMAP
F0
F0
F0
F0
F0
ENDCHAR
STARTCHAR 00AF
ENCODING 175
SWIDTH 360 0
DWIDTH 4 0
BBX 5 1 0 8
BITMAP
F8
ENDCHAR
STARTCHAR 00B0
ENCODING 176
SWIDTH 180 0
DWIDTH 2 0
BBX 3 2 0 6
BITMAP
E0
E0
ENDCHAR
STARTCHAR 00B1
ENCODING 177
SWIDTH 360 0
DWIDTH 4 0
BBX 5 6 0 0
BITMAP
20
20
F8
20
00
F8
ENDCHAR
STARTCHAR 00B4
ENCODING 180
SWIDTH 360 0
DWIDTH 4 0
BBX 4 1 0 8
BITMAP
F0
ENDCHAR
STARTCHAR 00B6
ENCODING 182
SWIDTH 360 0
DWIDTH 4 0
BBX 4 8 0 0
BITMAP
60
F0
F0
70
30
30
30
30
ENDCHAR
STARTCHAR 00B7
ENCODING 183
SWIDTH 90 0
DWIDTH 1 0
BBX 2 2 0 3
BITMAP
C0
C0
ENDCHAR
STARTCHAR 00B8
ENCODING 184
SWIDTH 180 0
DWIDTH 2 0
BBX 2 2 0 -2
BITMAP
40
C0
ENDCHAR
STARTCHAR 00BB
ENCODING 187
SWIDTH 450 0
DWIDTH 5 0
BBX 5 5 0 1
BITMAP
80
50
28
D0
80
ENDCHAR
STARTCHAR 00BC
ENCODING 188
SWIDTH 540 0
DWIDTH 6 0
BBX 6 8 0 0
BITMAP
48
C8
50
50
1C
2C
3C
44
ENDCHAR
STARTCHAR 00BD
ENCODING 189
SWIDTH 630 0
DWIDTH 7 0
BBX 7 8 0 0
BITMAP
48
C8
50
50
1E
22
24
4E
ENDCHAR
STARTCHAR 00BE
ENCODING 190
SWIDTH 630 0
DWIDTH 7 0
BBX 7 8 0 0
BITMAP
E4
24
68
68
14
1C
2E
24
ENDCHAR
STARTCHAR 00BF
ENCODING 191
SWIDTH 450 0
DWIDTH 5 0
BBX 6 8 0 0
BITMAP
30
30
30
30
60
40
FC
F8
ENDCHAR
STARTCHAR 00C0
ENCODING 192
SWIDTH 540 0
DWIDTH 6 0
BBX 6 9 0 0
BITMAP
38
38
78
68
6C
4C
7C
CC
C4
ENDCHAR
STARTCHAR 00C1
ENCODING 193
SWIDTH 540 0
DWIDTH 6 0
BBX 6 9 0 0
BITMAP
78
38
78
68
6C
4C
7C
CC
C4
ENDCHAR
STARTCHAR 00C2
ENCODING 194
SWIDTH 540 0
DWIDTH 6 0
BBX 6 10 0 0
BITMAP
38
48
38
78
68
6C
4C
7C
CC
C4
ENDCHAR
STARTCHAR 00C3
ENCODING 195
SWIDTH 540 0
DWIDTH 6 0
BBX 6 10 0 0
BITMAP
20
58
38
78
68
6C
4C
7C
CC
C4
ENDCHAR
STARTCHAR 00C4
ENCODING 196
SWIDTH 540 0
DWIDTH 6 0
BBX 6 9 0 0
BITMAP
28
38
78
68
6C
4C
7C
CC
C4
ENDCHAR
STARTCHAR 00C5
ENCODING 197
SWIDTH 540 0
DWIDTH 6 0
BBX 6 10 0 0
BITMAP
30
30
38
78
68
6C
4C
7C
CC
C4
ENDCHAR
STARTCHAR 00C6
ENCODING 198
SWIDTH 810 0
DWIDTH 9 0
BBX 9 8 0 0
BITMAP
3F00
7F80
6800
6F00
4F00
7800
CF80
CF00
ENDCHAR
STARTCHAR 00C7
ENCODING 199
SWIDTH 540 0
DWIDTH 6 0
BBX 6 10 0 -2
BITMAP
F8
FC
C0
C0
C0
C0
FC
F8
20
20
ENDCHAR
STARTCHAR 00C8
ENCODING 200
SWIDTH 540 0
DWIDTH 6 0
BBX 6 9 0 0
BITMAP
78
F8
FC
C0
F0
F0
C0
FC
F8
ENDCHAR
STARTCHAR 00C9
ENCODING 201
SWIDTH 540 0
DWIDTH 6 0
BBX 6 9 0 0
BITMAP
70
F8
FC
C0
F0
F0
C0
FC
F8
ENDCHAR
STARTCHAR 00CA
ENCODING 202
SWIDTH 540 0
DWIDTH 6 0
BBX 6 10 0 0
BITMAP
70
C8
F8
FC
C0
F0
F0
C0
FC
F8
ENDCHAR
STARTCHAR 00CB
ENCODING 203
SWIDTH 540 0
DWIDTH 6 0
BBX 6 9 0 0
BITMAP
50
F8
FC
C0
F0
F0
C0
FC
F8
ENDCHAR
STARTCHAR 00CC
ENCODING 204
SWIDTH 180 0
DWIDTH 2 0
BBX 4 9 0 0
BITMAP
F0
C0
C0
C0
C0
C0
C0
C0
C0
ENDCHAR
STARTCHAR 00CD
ENCODING 205
SWIDTH 180 0
DWIDTH 2 0
BBX 4 9 -1 0
BITMAP
F0
60
60
60
60
60
60
60
60
ENDCHAR
STARTCHAR 00CE
ENCODING 206
SWIDTH 450 0
DWIDTH 5 0
BBX 5 10 0 0
BITMAP
70
C8
30
30
30
30
30
30
30
30
ENDCHAR
STARTCHAR 00CF
ENCODING 207
SWIDTH 180 0
DWIDTH 2 0
BBX 3 9 0 0
BITMAP
A0
C0
C0
C0
C0
C0
C0
C0
C0
ENDCHAR
STARTCHAR 00D0
ENCODING 208
SWIDTH 540 0
DWIDTH 6 0
BBX 6 8 0 0
BITMAP
F8
FC
CC
CC
EC
CC
FC
F8
ENDCHAR
STARTCHAR 00D1
ENCODING 209
SWIDTH 540 0
DWIDTH 6 0
BBX 6 10 0 0
BITMAP
20
58
4C
EC
EC
FC
DC
DC
CC
C8
ENDCHAR
STARTCHAR 00D2
ENCODING 210
SWIDTH 540 0
DWIDTH 6 0
BBX 6 9 0 0
BITMAP
3C
7C
FC
C4
C4
C4
C4
FC
7C
ENDCHAR
STARTCHAR 00D3
ENCODING 211
SWIDTH 540 0
DWIDTH 6 0
BBX 6 9 0 0
BITMAP
38
7C
FC
C4
C4
C4
C4
FC
7C
ENDCHAR
STARTCHAR 00D4
ENCODING 212
SWIDTH 540 0
DWIDTH 6 0
BBX 6 10 0 0
BITMAP
38
44
7C
FC
C4
C4
C4
C4
FC
7C
ENDCHAR
STARTCHAR 00D5
ENCODING 213
SWIDTH 540 0
DWIDTH 6 0
BBX 6 10 0 0
BITMAP
20
58
7C
FC
C4
C4
C4
C4
FC
7C
ENDCHAR
STARTCHAR 00D6
ENCODING 214
SWIDTH 540 0
DWIDTH 6 0
BBX 6 9 0 0
BITMAP
28
7C
FC
C4
C4
C4
C4
FC
7C
ENDCHAR
STARTCHAR 00D7
ENCODING 215
SWIDTH 360 0
DWIDTH 4 0
BBX 4 3 0 3
BITMAP
70
60
D0
ENDCHAR
STARTCHAR 00D8
ENCODING 216
SWIDTH 540 0
DWIDTH 6 0
BBX 6 10 0 -1
BITMAP
04
7C
FC
CC
D4
D4
E4
FC
7C
40
ENDCHAR
STARTCHAR 00D9
ENCODING 217
SWIDTH 540 0
DWIDTH 6 0
BBX 6 9 0 0
BITMAP
38
C4
C4
C4
C4
C4
C4
FC
7C
ENDCHAR
STARTCHAR 00DA
ENCODING 218
SWIDTH 540 0
DWIDTH 6 0
BBX 6 9 0 0
BITMAP
78
C4
C4
C4
C4
C4
C4
FC
7C
ENDCHAR
STARTCHAR 00DB
ENCODING 219
SWIDTH 540 0
DWIDTH 6 0
BBX 6 10 0 0
BITMAP
38
44
C4
C4
C4
C4
C4
C4
FC
7C
ENDCHAR
STARTCHAR 00DC
ENCODING 220
SWIDTH 540 0
DWIDTH 6 0
BBX 6 9 0 0
BITMAP
28
C4
C4
C4
C4
C4
C4
FC
7C
ENDCHAR
STARTCHAR 00DD
ENCODING 221
SWIDTH 450 0
DWIDTH 5 0
BBX 5 9 0 0
BITMAP
70
C8
D8
58
70
30
20
20
20
ENDCHAR
STARTCHAR 00DE
ENCODING 222
SWIDTH 540 0
DWIDTH 6 0
BBX 6 9 0 0
BITMAP
C0
F8
FC
CC
CC
F8
C0
C0
C0
ENDCHAR
STARTCHAR 00DF
ENCODING 223
SWIDTH 540 0
DWIDTH 6 0
BBX 6 8 0 0
BITMAP
78
FC
CC
DC
DC
CC
DC
D8
ENDCHAR
STARTCHAR 00E0
ENCODING 224
SWIDTH 540 0
DWIDTH 6 0
BBX 6 9 0 0
BITMAP
38
38
78
68
6C
4C
7C
CC
C4
ENDCHAR
STARTCHAR 00E1
ENCODING 225
SWIDTH 540 0
DWIDTH 6 0
BBX 6 9 0 0
BITMAP
78
38
78
68
6C
4C
7C
CC
C4
ENDCHAR
STARTCHAR 00E2
ENCODING 226
SWIDTH 540 0
DWIDTH 6 0
BBX 6 10 0 0
BITMAP
38
48
38
78
68
6C
4C
7C
CC
C4
ENDCHAR
STARTCHAR 00E3
ENCODING 227
SWIDTH 540 0
DWIDTH 6 0
BBX 6 10 0 0
BITMAP
20
58
38
78
68
6C
4C
7C
CC
C4
ENDCHAR
STARTCHAR 00E4
ENCODING 228
SWIDTH 540 0
DWIDTH 6 0
BBX 6 9 0 0
BITMAP
28
38
78
68
6C
4C
7C
CC
C4
ENDCHAR
STARTCHAR 00E5
ENCODING 229
SWIDTH 540 0
DWIDTH 6 0
BBX 6 10 0 0
BITMAP
30
30
38
78
68
6C
4C
7C
CC
C4
ENDCHAR
STARTCHAR 00E6
ENCODING 230
SWIDTH 810 0
DWIDTH 9 0
BBX 9 8 0 0
BITMAP
3F00
7F80
6800
6F00
4F00
7800
CF80
CF00
ENDCHAR
STARTCHAR 00E7
ENCODING 231
SWIDTH 540 0
DWIDTH 6 0
BBX 6 10 0 -2
BITMAP
F8
FC
C0
C0
C0
C0
FC
F8
20
20
ENDCHAR
STARTCHAR 00E8
ENCODING 232
SWIDTH 540 0
DWIDTH 6 0
BBX 6 9 0 0
BITMAP
78
F8
FC
C0
F0
F0
C0
FC
F8
ENDCHAR
STARTCHAR 00E9
ENCODING 233
SWIDTH 540 0
DWIDTH 6 0
BBX 6 9 0 0
BITMAP
70
F8
FC
C0
F0
F0
C0
FC
F8
ENDCHAR
STARTCHAR 00EA
ENCODING 234
SWIDTH 540 0
DWIDTH 6 0
BBX 6 10 0 0
BITMAP
70
C8
F8
FC
C0
F0
F0
C0
FC
F8
ENDCHAR
STARTCHAR 00EB
ENCODING 235
SWIDTH 540 0
DWIDTH 6 0
BBX 6 9 0 0
BITMAP
50
F8
FC
C0
F0
F0
C0
FC
F8
ENDCHAR
STARTCHAR 00EC
ENCODING 236
SWIDTH 180 0
DWIDTH 2 0
BBX 3 9 0 0
BITMAP
E0
C0
C0
C0
C0
C0
C0
C0
C0
ENDCHAR
STARTCHAR 00ED
ENCODING 237
SWIDTH 180 0
DWIDTH 2 0
BBX 4 9 -1 0
BITMAP
F0
60
60
60
60
60
60
60
60
ENDCHAR
STARTCHAR 00EE
ENCODING 238
SWIDTH 450 0
DWIDTH 5 0
BBX 5 10 0 0
BITMAP
70
C8
30
30
30
30
30
30
30
30
ENDCHAR
STARTCHAR 00EF
ENCODING 239
SWIDTH 180 0
DWIDTH 2 0
BBX 3 9 0 0
BITMAP
A0
C0
C0
C0
C0
C0
C0
C0
C0
ENDCHAR
STARTCHAR 00F0
ENCODING 240
SWIDTH 540 0
DWIDTH 6 0
BBX 6 8 0 0
BITMAP
F8
FC
CC
CC
EC
CC
FC
F8
ENDCHAR
STARTCHAR 00F1
ENCODING 241
SWIDTH 540 0
DWIDTH 6 0
BBX 6 10 0 0
BITMAP
20
58
4C
EC
EC
FC
DC
DC
CC
C8
ENDCHAR
STARTCHAR 00F2
ENCODING 242
SWIDTH 540 0
DWIDTH 6 0
BBX 6 9 0 0
BITMAP
38
7C
FC
C4
C4
C4
C4
FC
7C
ENDCHAR
STARTCHAR 00F3
ENCODING 243
SWIDTH 540 0
DWIDTH 6 0
BBX 6 9 0 0
BITMAP
78
7C
FC
C4
C4
C4
C4
FC
7C
ENDCHAR
STARTCHAR 00F4
ENCODING 244
SWIDTH 540 0
DWIDTH 6 0
BBX 6 10 0 0
BITMAP
38
44
7C
FC
C4
C4
C4
C4
FC
7C
ENDCHAR
STARTCHAR 00F5
ENCODING 245
SWIDTH 540 0
DWIDTH 6 0
BBX 6 10 0 0
BITMAP
20
58
7C
FC
C4
C4
C4
C4
FC
7C
ENDCHAR
STARTCHAR 00F6
ENCODING 246
SWIDTH 540 0
DWIDTH 6 0
BBX 6 9 0 0
BITMAP
28
7C
FC
C4
C4
C4
C4
FC
7C
ENDCHAR
STARTCHAR 00F7
ENCODING 247
SWIDTH 360 0
DWIDTH 4 0
BBX 5 4 0 2
BITMAP
20
F8
F8
20
ENDCHAR
STARTCHAR 00F8
ENCODING 248
SWIDTH 540 0
DWIDTH 6 0
BBX 6 10 0 -1
BITMAP
04
7C
FC
CC
D4
D4
E4
FC
7C
40
ENDCHAR
STARTCHAR 00F9
ENCODING 249
SWIDTH 540 0
DWIDTH 6 0
BBX 6 9 0 0
BITMAP
38
C4
C4
C4
C4
C4
C4
FC
7C
ENDCHAR
STARTCHAR 00FA
ENCODING 250
SWIDTH 540 0
DWIDTH 6 0
BBX 6 9 0 0
BITMAP
78
C4
C4
C4
C4
C4
C4
FC
7C
ENDCHAR
STARTCHAR 00FB
ENCODING 251
SWIDTH 540 0
DWIDTH 6 0
BBX 6 10 0 0
BITMAP
38
44
C4
C4
C4
C4
C4
C4
FC
7C
ENDCHAR
STARTCHAR 00FC
ENCODING 252
SWIDTH 540 0
DWIDTH 6 0
BBX 6 9 0 0
BITMAP
28
C4
C4
C4
C4
C4
C4
FC
7C
ENDCHAR
STARTCHAR 00FD
ENCODING 253
SWIDTH 450 0
DWIDTH 5 0
BBX 5 9 0 0
BITMAP
70
C8
D8
58
70
30
20
20
20
ENDCHAR
STARTCHAR 00FE
ENCODING 254
SWIDTH 540 0
DWIDTH 6 0
BBX 6 9 0 0
BITMAP
C0
F8
FC
CC
CC
F8
C0
C0
C0
ENDCHAR
STARTCHAR 00FF
ENCODING 255
SWIDTH 450 0
DWIDTH 5 0
BBX 5 9 0 0
BITMAP
50
C8
D8
58
70
30
20
20
20
ENDCHAR
STARTCHAR 0100
ENCODING 256
SWIDTH 540 0
DWIDTH 6 0
BBX 6 9 0 0
BITMAP
78
38
78
68
6C
4C
7C
CC
C4
ENDCHAR
STARTCHAR 0101
ENCODING 257
SWIDTH 540 0
DWIDTH 6 0
BBX 6 9 0 0
BITMAP
78
38
78
68
6C
4C
7C
CC
C4
ENDCHAR
STARTCHAR 0102
ENCODING 258
SWIDTH 540 0
DWIDTH 6 0
BBX 6 10 0 0
BITMAP
40
78
38
78
68
6C
4C
7C
CC
C4
ENDCHAR
STARTCHAR 0103
ENCODING 259
SWIDTH 540 0
DWIDTH 6 0
BBX 6 10 0 0
BITMAP
40
78
38
78
68
6C
4C
7C
CC
C4
ENDCHAR
STARTCHAR 0104
ENCODING 260
SWIDTH 540 0
DWIDTH 6 0
BBX 7 10 0 -2
BITMAP
38
78
68
6C
4C
7C
CC
C4
04
06
ENDCHAR
STARTCHAR 0105
ENCODING 261
SWIDTH 540 0
DWIDTH 6 0
BBX 7 10 0 -2
BITMAP
38
78
68
6C
4C
7C
CC
C4
04
06
ENDCHAR
STARTCHAR 0106
ENCODING 262
SWIDTH 540 0
DWIDTH 6 0
BBX 6 9 0 0
BITMAP
78
F8
FC
C0
C0
C0
C0
FC
F8
ENDCHAR
STARTCHAR 0107
ENCODING 263
SWIDTH 540 0
DWIDTH 6 0
BBX 6 9 0 0
BITMAP
78
F8
FC
C0
C0
C0
C0
FC
F8
ENDCHAR
STARTCHAR 0108
ENCODING 264
SWIDTH 540 0
DWIDTH 6 0
BBX 6 10 0 0
BITMAP
70
C8
F8
FC
C0
C0
C0
C0
FC
F8
ENDCHAR
STARTCHAR 0109
ENCODING 265
SWIDTH 540 0
DWIDTH 6 0
BBX 6 10 0 0
BITMAP
70
C8
F8
FC
C0
C0
C0
C0
FC
F8
ENDCHAR
STARTCHAR 010A
ENCODING 266
SWIDTH 540 0
DWIDTH 6 0
BBX 6 9 0 1
BITMAP
30
F8
FC
C0
C0
C0
C0
FC
F8
ENDCHAR
STARTCHAR 010B
ENCODING 267
SWIDTH 540 0
DWIDTH 6 0
BBX 6 9 0 1
BITMAP
30
F8
FC
C0
C0
C0
C0
FC
F8
ENDCHAR
STARTCHAR 010C
ENCODING 268
SWIDTH 540 0
DWIDTH 6 0
BBX 6 10 0 0
BITMAP
40
30
F8
FC
C0
C0
C0
C0
FC
F8
ENDCHAR
STARTCHAR 010D
ENCODING 269
SWIDTH 540 0
DWIDTH 6 0
BBX 6 10 0 0
BITMAP
40
30
F8
FC
C0
C0
C0
C0
FC
F8
ENDCHAR
STARTCHAR 010E
ENCODING 270
SWIDTH 540 0
DWIDTH 6 0
BBX 6 10 0 0
BITMAP
08
30
F8
FC
CC
CC
CC
CC
FC
F8
ENDCHAR
STARTCHAR 010F
ENCODING 271
SWIDTH 720 0
DWIDTH 8 0
BBX 8 8 0 0
BITMAP
F9
FD
CD
CC
CC
CC
FC
F8
ENDCHAR
STARTCHAR 0110
ENCODING 272
SWIDTH 540 0
DWIDTH 6 0
BBX 6 8 0 0
BITMAP
F8
FC
CC
CC
EC
CC
FC
F8
ENDCHAR
STARTCHAR 0111
ENCODING 273
SWIDTH 540 0
DWIDTH 6 0
BBX 6 8 0 0
BITMAP
F8
FC
CC
CC
EC
CC
FC
F8
ENDCHAR
STARTCHAR 0112
ENCODING 274
SWIDTH 540 0
DWIDTH 6 0
BBX 6 9 0 0
BITMAP
F8
F8
FC
C0
F0
F0
C0
FC
F8
ENDCHAR
STARTCHAR 0113
ENCODING 275
SWIDTH 540 0
DWIDTH 6 0
BBX 6 9 0 0
BITMAP
F8
F8
FC
C0
F0
F0
C0
FC
F8
ENDCHAR
STARTCHAR 0116
ENCODING 278
SWIDTH 540 0
DWIDTH 6 0
BBX 6 10 0 0
BITMAP
20
30
F8
FC
C0
F0
F0
C0
FC
F8
ENDCHAR
STARTCHAR 0117
ENCODING 279
SWIDTH 540 0
DWIDTH 6 0
BBX 6 10 0 0
BITMAP
20
30
F8
FC
C0
F0
F0
C0
FC
F8
ENDCHAR
STARTCHAR 0118
ENCODING 280
SWIDTH 540 0
DWIDTH 6 0
BBX 6 10 0 -2
BITMAP
F8
FC
C0
F0
F0
C0
FC
F8
20
30
ENDCHAR
STARTCHAR 0119
ENCODING 281
SWIDTH 540 0
DWIDTH 6 0
BBX 6 10 0 -2
BITMAP
F8
FC
C0
F0
F0
C0
FC
F8
20
30
ENDCHAR
STARTCHAR 011C
ENCODING 284
SWIDTH 540 0
DWIDTH 6 0
BBX 6 10 0 0
BITMAP
30
48
F8
FC
C0
C0
DC
CC
FC
FC
ENDCHAR
STARTCHAR 011D
ENCODING 285
SWIDTH 540 0
DWIDTH 6 0
BBX 6 10 0 0
BITMAP
30
48
F8
FC
C0
C0
DC
CC
FC
FC
ENDCHAR
STARTCHAR 011E
ENCODING 286
SWIDTH 540 0
DWIDTH 6 0
BBX 6 10 0 0
BITMAP
48
78
F8
FC
C0
C0
DC
CC
FC
FC
ENDCHAR
STARTCHAR 011F
ENCODING 287
SWIDTH 540 0
DWIDTH 6 0
BBX 6 10 0 0
BITMAP
48
78
F8
FC
C0
C0
DC
CC
FC
FC
ENDCHAR
STARTCHAR 0120
ENCODING 288
SWIDTH 540 0
DWIDTH 6 0
BBX 6 10 0 0
BITMAP
10
30
F8
FC
C0
C0
DC
CC
FC
FC
ENDCHAR
STARTCHAR 0121
ENCODING 289
SWIDTH 540 0
DWIDTH 6 0
BBX 6 10 0 0
BITMAP
10
30
F8
FC
C0
C0
DC
CC
FC
FC
ENDCHAR
STARTCHAR 0122
ENCODING 290
SWIDTH 540 0
DWIDTH 6 0
BBX 6 10 0 -2
BITMAP
F8
FC
C0
C0
DC
CC
FC
FC
00
20
ENDCHAR
STARTCHAR 0123
ENCODING 291
SWIDTH 540 0
DWIDTH 6 0
BBX 6 10 0 -2
BITMAP
F8
FC
C0
C0
DC
CC
FC
FC
00
20
ENDCHAR
STARTCHAR 0124
ENCODING 292
SWIDTH 540 0
DWIDTH 6 0
BBX 6 10 0 0
BITMAP
38
4C
CC
CC
CC
FC
FC
CC
CC
CC
ENDCHAR
STARTCHAR 0125
ENCODING 293
SWIDTH 540 0
DWIDTH 6 0
BBX 6 10 0 0
BITMAP
38
4C
CC
CC
CC
FC
FC
CC
CC
CC
ENDCHAR
STARTCHAR 0126
ENCODING 294
SWIDTH 540 0
DWIDTH 6 0
BBX 7 8 0 0
BITMAP
CC
FE
CC
FC
FC
CC
CC
CC
ENDCHAR
STARTCHAR 0127
ENCODING 295
SWIDTH 540 0
DWIDTH 6 0
BBX 7 8 0 0
BITMAP
CC
FE
CC
FC
FC
CC
CC
CC
ENDCHAR
STARTCHAR 0128
ENCODING 296
SWIDTH 180 0
DWIDTH 2 0
BBX 4 10 -1 0
BITMAP
40
B0
60
60
60
60
60
60
60
60
ENDCHAR
STARTCHAR 0129
ENCODING 297
SWIDTH 180 0
DWIDTH 2 0
BBX 4 10 -1 0
BITMAP
40
B0
60
60
60
60
60
60
60
60
ENDCHAR
STARTCHAR 012A
ENCODING 298
SWIDTH 180 0
DWIDTH 2 0
BBX 5 9 -1 0
BITMAP
F8
60
60
60
60
60
60
60
60
ENDCHAR
STARTCHAR 012B
ENCODING 299
SWIDTH 180 0
DWIDTH 2 0
BBX 5 9 -1 0
BITMAP
F8
60
60
60
60
60
60
60
60
ENDCHAR
STARTCHAR 012E
ENCODING 302
SWIDTH 180 0
DWIDTH 2 0
BBX 2 10 0 -2
BITMAP
C0
C0
C0
C0
C0
C0
C0
C0
80
C0
ENDCHAR
STARTCHAR 012F
ENCODING 303
SWIDTH 180 0
DWIDTH 2 0
BBX 2 10 0 -2
BITMAP
C0
C0
C0
C0
C0
C0
C0
C0
80
C0
ENDCHAR
STARTCHAR 0134
ENCODING 308
SWIDTH 450 0
DWIDTH 5 0
BBX 5 10 0 0
BITMAP
30
48
78
78
18
18
18
18
F8
78
ENDCHAR
STARTCHAR 0135
ENCODING 309
SWIDTH 450 0
DWIDTH 5 0
BBX 5 10 0 0
BITMAP
30
48
78
78
18
18
18
18
F8
78
ENDCHAR
STARTCHAR 0136
ENCODING 310
SWIDTH 540 0
DWIDTH 6 0
BBX 6 9 0 -2
BITMAP
CC
DC
D8
F0
F0
D8
D8
CC
10
ENDCHAR
STARTCHAR 0137
ENCODING 311
SWIDTH 540 0
DWIDTH 6 0
BBX 6 9 0 -2
BITMAP
CC
DC
D8
F0
F0
D8
D8
CC
10
ENDCHAR
STARTCHAR 0139
ENCODING 313
SWIDTH 360 0
DWIDTH 4 0
BBX 6 9 -1 0
BITMAP
F0
60
60
60
60
60
60
7C
78
ENDCHAR
STARTCHAR 013A
ENCODING 314
SWIDTH 360 0
DWIDTH 4 0
BBX 6 9 -1 0
BITMAP
F0
60
60
60
60
60
60
7C
78
ENDCHAR
STARTCHAR 013C
ENCODING 316
SWIDTH 360 0
DWIDTH 4 0
BBX 5 10 0 -2
BITMAP
C0
C0
C0
C0
C0
C0
F8
F0
20
20
ENDCHAR
STARTCHAR 013D
ENCODING 317
SWIDTH 360 0
DWIDTH 4 0
BBX 5 10 0 0
BITMAP
20
C0
C0
C0
C0
C0
C0
C0
F8
F0
ENDCHAR
STARTCHAR 013E
ENCODING 318
SWIDTH 360 0
DWIDTH 4 0
BBX 5 10 0 0
BITMAP
20
C0
C0
C0
C0
C0
C0
C0
F8
F0
ENDCHAR
STARTCHAR 0141
ENCODING 321
SWIDTH 450 0
DWIDTH 5 0
BBX 6 8 0 0
BITMAP
60
60
78
70
E0
60
7C
78
ENDCHAR
STARTCHAR 0142
ENCODING 322
SWIDTH 450 0
DWIDTH 5 0
BBX 6 8 0 0
BITMAP
60
60
78
70
E0
60
7C
78
ENDCHAR
STARTCHAR 0143
ENCODING 323
SWIDTH 540 0
DWIDTH 6 0
BBX 6 9 0 0
BITMAP
78
4C
EC
EC
FC
DC
DC
CC
C8
ENDCHAR
STARTCHAR 0144
ENCODING 324
SWIDTH 540 0
DWIDTH 6 0
BBX 6 9 0 0
BITMAP
78
4C
EC
EC
FC
DC
DC
CC
C8
ENDCHAR
STARTCHAR 0145
ENCODING 325
SWIDTH 540 0
DWIDTH 6 0
BBX 6 9 0 -2
BITMAP
4C
EC
EC
FC
DC
DC
CC
C8
10
ENDCHAR
STARTCHAR 0146
ENCODING 326
SWIDTH 540 0
DWIDTH 6 0
BBX 6 9 0 -2
BITMAP
4C
EC
EC
FC
DC
DC
CC
C8
10
ENDCHAR
STARTCHAR 0147
ENCODING 327
SWIDTH 540 0
DWIDTH 6 0
BBX 6 10 0 0
BITMAP
08
30
4C
EC
EC
FC
DC
DC
CC
C8
ENDCHAR
STARTCHAR 0148
ENCODING 328
SWIDTH 540 0
DWIDTH 6 0
BBX 6 10 0 0
BITMAP
08
30
4C
EC
EC
FC
DC
DC
CC
C8
ENDCHAR
STARTCHAR 014C
ENCODING 332
SWIDTH 540 0
DWIDTH 6 0
BBX 6 9 0 0
BITMAP
7C
7C
FC
C4
C4
C4
C4
FC
7C
ENDCHAR
STARTCHAR 014D
ENCODING 333
SWIDTH 540 0
DWIDTH 6 0
BBX 6 9 0 0
BITMAP
7C
7C
FC
C4
C4
C4
C4
FC
7C
ENDCHAR
STARTCHAR 0150
ENCODING 336
SWIDTH 540 0
DWIDTH 6 0
BBX 6 10 0 0
BITMAP
18
00
7C
FC
C4
C4
C4
C4
FC
7C
ENDCHAR
STARTCHAR 0151
ENCODING 337
SWIDTH 540 0
DWIDTH 6 0
BBX 6 10 0 0
BITMAP
18
00
7C
FC
C4
C4
C4
C4
FC
7C
ENDCHAR
STARTCHAR 0152
ENCODING 338
SWIDTH 810 0
DWIDTH 9 0
BBX 9 8 0 0
BITMAP
7F00
FF80
CC00
CF00
CF00
CC00
FF80
7F80
ENDCHAR
STARTCHAR 0153
ENCODING 339
SWIDTH 810 0
DWIDTH 9 0
BBX 9 8 0 0
BITMAP
7F00
FF80
CC00
CF00
CF00
CC00
FF80
7F80
ENDCHAR
STARTCHAR 0154
ENCODING 340
SWIDTH 540 0
DWIDTH 6 0
BBX 6 9 0 0
BITMAP
78
F8
FC
CC
F8
F8
D8
CC
CC
ENDCHAR
STARTCHAR 0155
ENCODING 341
SWIDTH 540 0
DWIDTH 6 0
BBX 6 9 0 0
BITMAP
78
F8
FC
CC
F8
F8
D8
CC
CC
ENDCHAR
STARTCHAR 0156
ENCODING 342
SWIDTH 540 0
DWIDTH 6 0
BBX 6 9 0 -2
BITMAP
F8
FC
CC
F8
F8
D8
CC
CC
10
ENDCHAR
STARTCHAR 0157
ENCODING 343
SWIDTH 540 0
DWIDTH 6 0
BBX 6 9 0 -2
BITMAP
F8
FC
CC
F8
F8
D8
CC
CC
10
ENDCHAR
STARTCHAR 0158
ENCODING 344
SWIDTH 540 0
DWIDTH 6 0
BBX 6 10 0 0
BITMAP
40
30
F8
FC
CC
F8
F8
D8
CC
CC
ENDCHAR
STARTCHAR 0159
ENCODING 345
SWIDTH 540 0
DWIDTH 6 0
BBX 6 10 0 0
BITMAP
40
30
F8
FC
CC
F8
F8
D8
CC
CC
ENDCHAR
STARTCHAR 015C
ENCODING 348
SWIDTH 540 0
DWIDTH 6 0
BBX 6 10 0 0
BITMAP
70
C8
78
FC
E0
70
38
1C
FC
7C
ENDCHAR
STARTCHAR 015D
ENCODING 349
SWIDTH 540 0
DWIDTH 6 0
BBX 6 10 0 0
BITMAP
70
C8
78
FC
E0
70
38
1C
FC
7C
ENDCHAR
STARTCHAR 015E
ENCODING 350
SWIDTH 540 0
DWIDTH 6 0
BBX 6 10 0 -2
BITMAP
78
FC
E0
70
38
1C
FC
7C
10
20
ENDCHAR
STARTCHAR 015F
ENCODING 351
SWIDTH 540 0
DWIDTH 6 0
BBX 6 10 0 -2
BITMAP
78
FC
E0
70
38
1C
FC
7C
10
20
ENDCHAR
STARTCHAR 0160
ENCODING 352
SWIDTH 540 0
DWIDTH 6 0
BBX 6 10 0 0
BITMAP
40
30
78
FC
E0
70
38
1C
FC
7C
ENDCHAR
STARTCHAR 0161
ENCODING 353
SWIDTH 540 0
DWIDTH 6 0
BBX 6 10 0 0
BITMAP
40
30
78
FC
E0
70
38
1C
FC
7C
ENDCHAR
STARTCHAR 0162
ENCODING 354
SWIDTH 450 0
DWIDTH 5 0
BBX 6 10 0 -2
BITMAP
78
FC
30
30
30
30
30
30
10
20
ENDCHAR
STARTCHAR 0163
ENCODING 355
SWIDTH 450 0
DWIDTH 5 0
BBX 6 10 0 -2
BITMAP
78
FC
30
30
30
30
30
30
10
20
ENDCHAR
STARTCHAR 0164
ENCODING 356
SWIDTH 450 0
DWIDTH 5 0
BBX 6 10 0 0
BITMAP
40
30
78
FC
30
30
30
30
30
30
ENDCHAR
STARTCHAR 0165
ENCODING 357
SWIDTH 450 0
DWIDTH 5 0
BBX 6 10 0 0
BITMAP
40
30
78
FC
30
30
30
30
30
30
ENDCHAR
STARTCHAR 0166
ENCODING 358
SWIDTH 450 0
DWIDTH 5 0
BBX 6 8 0 0
BITMAP
78
FC
30
30
78
30
30
30
ENDCHAR
STARTCHAR 0167
ENCODING 359
SWIDTH 450 0
DWIDTH 5 0
BBX 6 8 0 0
BITMAP
78
FC
30
30
78
30
30
30
ENDCHAR
STARTCHAR 0168
ENCODING 360
SWIDTH 540 0
DWIDTH 6 0
BBX 6 10 0 0
BITMAP
20
58
C4
C4
C4
C4
C4
C4
FC
7C
ENDCHAR
STARTCHAR 0169
ENCODING 361
SWIDTH 540 0
DWIDTH 6 0
BBX 6 10 0 0
BITMAP
20
58
C4
C4
C4
C4
C4
C4
FC
7C
ENDCHAR
STARTCHAR 016A
ENCODING 362
SWIDTH 540 0
DWIDTH 6 0
BBX 6 9 0 0
BITMAP
7C
C4
C4
C4
C4
C4
C4
FC
7C
ENDCHAR
STARTCHAR 016B
ENCODING 363
SWIDTH 540 0
DWIDTH 6 0
BBX 6 9 0 0
BITMAP
7C
C4
C4
C4
C4
C4
C4
FC
7C
ENDCHAR
STARTCHAR 016E
ENCODING 366
SWIDTH 540 0
DWIDTH 6 0
BBX 6 10 0 0
BITMAP
10
10
C4
C4
C4
C4
C4
C4
FC
7C
ENDCHAR
STARTCHAR 016F
ENCODING 367
SWIDTH 540 0
DWIDTH 6 0
BBX 6 10 0 0
BITMAP
10
10
C4
C4
C4
C4
C4
C4
FC
7C
ENDCHAR
STARTCHAR 0170
ENCODING 368
SWIDTH 540 0
DWIDTH 6 0
BBX 6 10 0 0
BITMAP
18
00
C4
C4
C4
C4
C4
C4
FC
7C
ENDCHAR
STARTCHAR 0171
ENCODING 369
SWIDTH 540 0
DWIDTH 6 0
BBX 6 10 0 0
BITMAP
18
00
C4
C4
C4
C4
C4
C4
FC
7C
ENDCHAR
STARTCHAR 0172
ENCODING 370
SWIDTH 540 0
DWIDTH 6 0
BBX 6 10 0 -2
BITMAP
C4
C4
C4
C4
C4
C4
FC
7C
20
30
ENDCHAR
STARTCHAR 0173
ENCODING 371
SWIDTH 540 0
DWIDTH 6 0
BBX 6 10 0 -2
BITMAP
C4
C4
C4
C4
C4
C4
FC
7C
20
30
ENDCHAR
STARTCHAR 0174
ENCODING 372
SWIDTH 810 0
DWIDTH 9 0
BBX 9 10 0 0
BITMAP
1C00
1200
C080
4180
6D80
6D80
6D80
7F00
3700
3300
ENDCHAR
STARTCHAR 0175
ENCODING 373
SWIDTH 810 0
DWIDTH 9 0
BBX 9 10 0 0
BITMAP
1C00
1200
C080
4180
6D80
6D80
6D80
7F00
3700
3300
ENDCHAR
STARTCHAR 0176
ENCODING 374
SWIDTH 450 0
DWIDTH 5 0
BBX 5 10 0 0
BITMAP
70
C8
C8
D8
58
70
30
20
20
20
ENDCHAR
STARTCHAR 0177
ENCODING 375
SWIDTH 450 0
DWIDTH 5 0
BBX 5 10 0 0
BITMAP
70
C8
C8
D8
58
70
30
20
20
20
ENDCHAR
STARTCHAR 0178
ENCODING 376
SWIDTH 450 0
DWIDTH 5 0
BBX 5 9 0 0
BITMAP
50
C8
D8
58
70
30
20
20
20
ENDCHAR
STARTCHAR 017B
ENCODING 379
SWIDTH 540 0
DWIDTH 6 0
BBX 6 10 0 0
BITMAP
10
30
F8
FC
18
38
30
60
7C
7C
ENDCHAR
STARTCHAR 017C
ENCODING 380
SWIDTH 540 0
DWIDTH 6 0
BBX 6 10 0 0
BITMAP
30
00
F8
FC
18
38
30
60
7C
7C
ENDCHAR
STARTCHAR 017D
ENCODING 381
SWIDTH 540 0
DWIDTH 6 0
BBX 6 10 0 0
BITMAP
08
30
F8
FC
18
38
30
60
7C
7C
ENDCHAR
STARTCHAR 017E
ENCODING 382
SWIDTH 540 0
DWIDTH 6 0
BBX 6 10 0 0
BITMAP
08
30
F8
FC
18
38
30
60
7C
7C
ENDCHAR
STARTCHAR 01A0
ENCODING 416
SWIDTH 540 0
DWIDTH 6 0
BBX 7 9 0 0
BITMAP
02
7E
FC
C4
C4
C4
C4
FC
7C
ENDCHAR
STARTCHAR 01A1
ENCODING 417
SWIDTH 540 0
DWIDTH 6 0
BBX 7 9 0 0
BITMAP
02
7E
FC
C4
C4
C4
C4
FC
7C
ENDCHAR
STARTCHAR 01AF
ENCODING 431
SWIDTH 540 0
DWIDTH 6 0
BBX 7 9 0 0
BITMAP
02
C6
C4
C4
C4
C4
C4
FC
7C
ENDCHAR
STARTCHAR 01B0
ENCODING 432
SWIDTH 540 0
DWIDTH 6 0
BBX 7 9 0 0
BITMAP
02
C6
C4
C4
C4
C4
C4
FC
7C
ENDCHAR
STARTCHAR 0218
ENCODING 536
SWIDTH 540 0
DWIDTH 6 0
BBX 6 9 0 -2
BITMAP
78
FC
E0
70
38
1C
FC
7C
10
ENDCHAR
STARTCHAR 0219
ENCODING 537
SWIDTH 540 0
DWIDTH 6 0
BBX 6 9 0 -2
BITMAP
78
FC
E0
70
38
1C
FC
7C
10
ENDCHAR
STARTCHAR 021A
ENCODING 538
SWIDTH 450 0
DWIDTH 5 0
BBX 6 10 0 -2
BITMAP
78
FC
30
30
30
30
30
30
00
20
ENDCHAR
STARTCHAR 021B
ENCODING 539
SWIDTH 450 0
DWIDTH 5 0
BBX 6 10 0 -2
BITMAP
78
FC
30
30
30
30
30
30
00
20
ENDCHAR
STARTCHAR 0259
ENCODING 601
SWIDTH 540 0
DWIDTH 6 0
BBX 6 8 0 0
BITMAP
7C
FC
0C
0C
EC
CC
FC
FC
ENDCHAR
STARTCHAR 02C6
ENCODING 710
SWIDTH 360 0
DWIDTH 4 0
BBX 5 2 0 8
BITMAP
70
88
ENDCHAR
STARTCHAR 02C7
ENCODING 711
SWIDTH 270 0
DWIDTH 3 0
BBX 3 2 0 8
BITMAP
80
60
ENDCHAR
STARTCHAR 02D8
ENCODING 728
SWIDTH 360 0
DWIDTH 4 0
BBX 5 2 0 8
BITMAP
88
70
ENDCHAR
STARTCHAR 02D9
ENCODING 729
SWIDTH 90 0
DWIDTH 1 0
BBX 2 1 0 9
BITMAP
C0
ENDCHAR
STARTCHAR 02DA
ENCODING 730
SWIDTH 180 0
DWIDTH 2 0
BBX 2 2 0 8
BITMAP
C0
C0
ENDCHAR
STARTCHAR 02DB
ENCODING 731
SWIDTH 180 0
DWIDTH 2 0
BBX 2 2 0 -2
BITMAP
80
C0
ENDCHAR
STARTCHAR 02DC
ENCODING 732
SWIDTH 360 0
DWIDTH 4 0
BBX 4 2 0 8
BITMAP
40
B0
ENDCHAR
STARTCHAR 02DD
ENCODING 733
SWIDTH 180 0
DWIDTH 2 0
BBX 3 2 0 8
BITMAP
A0
C0
ENDCHAR
STARTCHAR 1E20
ENCODING 7712
SWIDTH 540 0
DWIDTH 6 0
BBX 6 9 0 0
BITMAP
F8
F8
FC
C0
C0
DC
CC
FC
FC
ENDCHAR
STARTCHAR 1E3E
ENCODING 7742
SWIDTH 630 0
DWIDTH 7 0
BBX 7 9 0 0
BITMAP
38
6E
EE
FE
DA
DA
DA
C2
C2
ENDCHAR
STARTCHAR 1E3F
ENCODING 7743
SWIDTH 630 0
DWIDTH 7 0
BBX 7 9 0 0
BITMAP
38
6E
EE
FE
DA
DA
DA
C2
C2
ENDCHAR
STARTCHAR 1E44
ENCODING 7748
SWIDTH 540 0
DWIDTH 6 0
BBX 6 10 0 0
BITMAP
10
10
4C
EC
EC
FC
DC
DC
CC
C8
ENDCHAR
STARTCHAR 1E45
ENCODING 7749
SWIDTH 540 0
DWIDTH 6 0
BBX 6 10 0 0
BITMAP
10
10
4C
EC
EC
FC
DC
DC
CC
C8
ENDCHAR
STARTCHAR 1E80
ENCODING 7808
SWIDTH 810 0
DWIDTH 9 0
BBX 9 9 0 0
BITMAP
1E00
C080
4180
6D80
6D80
6D80
7F00
3700
3300
ENDCHAR
STARTCHAR 1E81
ENCODING 7809
SWIDTH 810 0
DWIDTH 9 0
BBX 9 9 0 0
BITMAP
1E00
C080
4180
6D80
6D80
6D80
7F00
3700
3300
ENDCHAR
STARTCHAR 1E82
ENCODING 7810
SWIDTH 810 0
DWIDTH 9 0
BBX 9 9 0 0
BITMAP
1C00
C080
4180
6D80
6D80
6D80
7F00
3700
3300
ENDCHAR
STARTCHAR 1E83
ENCODING 7811
SWIDTH 810 0
DWIDTH 9 0
BBX 9 9 0 0
BITMAP
1C00
C080
4180
6D80
6D80
6D80
7F00
3700
3300
ENDCHAR
STARTCHAR 1E84
ENCODING 7812
SWIDTH 810 0
DWIDTH 9 0
BBX 9 9 0 0
BITMAP
1400
C080
4180
6D80
6D80
6D80
7F00
3700
3300
ENDCHAR
STARTCHAR 1E85
ENCODING 7813
SWIDTH 810 0
DWIDTH 9 0
BBX 9 9 0 0
BITMAP
1400
C080
4180
6D80
6D80
6D80
7F00
3700
3300
ENDCHAR
STARTCHAR 1EA0
ENCODING 7840
SWIDTH 540 0
DWIDTH 6 0
BBX 6 9 0 -1
BITMAP
38
78
68
6C
4C
7C
CC
C4
30
ENDCHAR
STARTCHAR 1EA1
ENCODING 7841
SWIDTH 540 0
DWIDTH 6 0
BBX 6 9 0 -1
BITMAP
38
78
68
6C
4C
7C
CC
C4
30
ENDCHAR
STARTCHAR 1EA2
ENCODING 7842
SWIDTH 540 0
DWIDTH 6 0
BBX 6 10 0 0
BITMAP
30
10
38
78
68
6C
4C
7C
CC
C4
ENDCHAR
STARTCHAR 1EA3
ENCODING 7843
SWIDTH 540 0
DWIDTH 6 0
BBX 6 10 0 0
BITMAP
30
10
38
78
68
6C
4C
7C
CC
C4
ENDCHAR
STARTCHAR 1EA4
ENCODING 7844
SWIDTH 540 0
DWIDTH 6 0
BBX 6 11 0 0
BITMAP
78
38
48
38
78
68
6C
4C
7C
CC
C4
ENDCHAR
STARTCHAR 1EA5
ENCODING 7845
SWIDTH 540 0
DWIDTH 6 0
BBX 6 11 0 0
BITMAP
78
38
48
38
78
68
6C
4C
7C
CC
C4
ENDCHAR
STARTCHAR 1EA6
ENCODING 7846
SWIDTH 540 0
DWIDTH 6 0
BBX 6 11 0 0
BITMAP
78
38
48
38
78
68
6C
4C
7C
CC
C4
ENDCHAR
STARTCHAR 1EA7
ENCODING 7847
SWIDTH 540 0
DWIDTH 6 0
BBX 6 11 0 0
BITMAP
78
38
48
38
78
68
6C
4C
7C
CC
C4
ENDCHAR
STARTCHAR 1EA8
ENCODING 7848
SWIDTH 540 0
DWIDTH 6 0
BBX 6 12 0 0
BITMAP
30
10
38
48
38
78
68
6C
4C
7C
CC
C4
ENDCHAR
STARTCHAR 1EA9
ENCODING 7849
SWIDTH 540 0
DWIDTH 6 0
BBX 6 12 0 0
BITMAP
30
10
38
48
38
78
68
6C
4C
7C
CC
C4
ENDCHAR
STARTCHAR 1EAA
ENCODING 7850
SWIDTH 540 0
DWIDTH 6 0
BBX 6 12 0 0
BITMAP
20
5C
38
48
38
78
68
6C
4C
7C
CC
C4
ENDCHAR
STARTCHAR 1EAB
ENCODING 7851
SWIDTH 540 0
DWIDTH 6 0
BBX 6 12 0 0
BITMAP
20
5C
38
48
38
78
68
6C
4C
7C
CC
C4
ENDCHAR
STARTCHAR 1EAC
ENCODING 7852
SWIDTH 540 0
DWIDTH 6 0
BBX 6 11 0 -1
BITMAP
38
48
38
78
68
6C
4C
7C
CC
C4
30
ENDCHAR
STARTCHAR 1EAD
ENCODING 7853
SWIDTH 540 0
DWIDTH 6 0
BBX 6 11 0 -1
BITMAP
38
48
38
78
68
6C
4C
7C
CC
C4
30
ENDCHAR
STARTCHAR 1EAE
ENCODING 7854
SWIDTH 540 0
DWIDTH 6 0
BBX 6 11 0 0
BITMAP
78
40
78
38
78
68
6C
4C
7C
CC
C4
ENDCHAR
STARTCHAR 1EAF
ENCODING 7855
SWIDTH 540 0
DWIDTH 6 0
BBX 6 11 0 0
BITMAP
78
40
78
38
78
68
6C
4C
7C
CC
C4
ENDCHAR
STARTCHAR 1EB0
ENCODING 7856
SWIDTH 540 0
DWIDTH 6 0
BBX 6 11 0 0
BITMAP
78
40
78
38
78
68
6C
4C
7C
CC
C4
ENDCHAR
STARTCHAR 1EB1
ENCODING 7857
SWIDTH 540 0
DWIDTH 6 0
BBX 6 11 0 0
BITMAP
78
40
78
38
78
68
6C
4C
7C
CC
C4
ENDCHAR
STARTCHAR 1EB2
ENCODING 7858
SWIDTH 540 0
DWIDTH 6 0
BBX 6 11 0 0
BITMAP
30
40
78
38
78
68
6C
4C
7C
CC
C4
ENDCHAR
STARTCHAR 1EB3
ENCODING 7859
SWIDTH 540 0
DWIDTH 6 0
BBX 6 11 0 0
BITMAP
30
40
78
38
78
68
6C
4C
7C
CC
C4
ENDCHAR
STARTCHAR 1EB4
ENCODING 7860
SWIDTH 540 0
DWIDTH 6 0
BBX 6 12 0 0
BITMAP
20
5C
40
78
38
78
68
6C
4C
7C
CC
C4
ENDCHAR
STARTCHAR 1EB5
ENCODING 7861
SWIDTH 540 0
DWIDTH 6 0
BBX 6 12 0 0
BITMAP
20
5C
40
78
38
78
68
6C
4C
7C
CC
C4
ENDCHAR
STARTCHAR 1EB6
ENCODING 7862
SWIDTH 540 0
DWIDTH 6 0
BBX 6 11 0 -1
BITMAP
40
78
38
78
68
6C
4C
7C
CC
C4
30
ENDCHAR
STARTCHAR 1EB7
ENCODING 7863
SWIDTH 540 0
DWIDTH 6 0
BBX 6 11 0 -1
BITMAP
40
78
38
78
68
6C
4C
7C
CC
C4
30
ENDCHAR
STARTCHAR 1EB8
ENCODING 7864
SWIDTH 540 0
DWIDTH 6 0
BBX 6 9 0 -1
BITMAP
F8
FC
C0
F0
F0
C0
FC
F8
30
ENDCHAR
STARTCHAR 1EB9
ENCODING 7865
SWIDTH 540 0
DWIDTH 6 0
BBX 6 9 0 -1
BITMAP
F8
FC
C0
F0
F0
C0
FC
F8
30
ENDCHAR
STARTCHAR 1EBA
ENCODING 7866
SWIDTH 540 0
DWIDTH 6 0
BBX 6 10 0 0
BITMAP
30
00
F8
FC
C0
F0
F0
C0
FC
F8
ENDCHAR
STARTCHAR 1EBB
ENCODING 7867
SWIDTH 540 0
DWIDTH 6 0
BBX 6 10 0 0
BITMAP
30
00
F8
FC
C0
F0
F0
C0
FC
F8
ENDCHAR
STARTCHAR 1EBC
ENCODING 7868
SWIDTH 540 0
DWIDTH 6 0
BBX 6 10 0 0
BITMAP
60
98
F8
FC
C0
F0
F0
C0
FC
F8
ENDCHAR
STARTCHAR 1EBD
ENCODING 7869
SWIDTH 540 0
DWIDTH 6 0
BBX 6 10 0 0
BITMAP
60
98
F8
FC
C0
F0
F0
C0
FC
F8
ENDCHAR
STARTCHAR 1EBE
ENCODING 7870
SWIDTH 540 0
DWIDTH 6 0
BBX 6 11 0 0
BITMAP
70
70
C8
F8
FC
C0
F0
F0
C0
FC
F8
ENDCHAR
STARTCHAR 1EBF
ENCODING 7871
SWIDTH 540 0
DWIDTH 6 0
BBX 6 11 0 0
BITMAP
70
70
C8
F8
FC
C0
F0
F0
C0
FC
F8
ENDCHAR
STARTCHAR 1EC0
ENCODING 7872
SWIDTH 540 0
DWIDTH 6 0
BBX 6 11 0 0
BITMAP
78
70
C8
F8
FC
C0
F0
F0
C0
FC
F8
ENDCHAR
STARTCHAR 1EC1
ENCODING 7873
SWIDTH 540 0
DWIDTH 6 0
BBX 6 11 0 0
BITMAP
78
70
C8
F8
FC
C0
F0
F0
C0
FC
F8
ENDCHAR
STARTCHAR 1EC2
ENCODING 7874
SWIDTH 540 0
DWIDTH 6 0
BBX 6 12 0 0
BITMAP
30
20
70
C8
F8
FC
C0
F0
F0
C0
FC
F8
ENDCHAR
STARTCHAR 1EC3
ENCODING 7875
SWIDTH 540 0
DWIDTH 6 0
BBX 6 12 0 0
BITMAP
30
20
70
C8
F8
FC
C0
F0
F0
C0
FC
F8
ENDCHAR
STARTCHAR 1EC4
ENCODING 7876
SWIDTH 540 0
DWIDTH 6 0
BBX 6 11 0 1
BITMAP
F8
70
C8
F8
FC
C0
F0
F0
C0
FC
F8
ENDCHAR
STARTCHAR 1EC5
ENCODING 7877
SWIDTH 540 0
DWIDTH 6 0
BBX 6 11 0 1
BITMAP
F8
70
C8
F8
FC
C0
F0
F0
C0
FC
F8
ENDCHAR
STARTCHAR 1EC6
ENCODING 7878
SWIDTH 540 0
DWIDTH 6 0
BBX 6 11 0 -1
BITMAP
70
C8
F8
FC
C0
F0
F0
C0
FC
F8
30
ENDCHAR
STARTCHAR 1EC7
ENCODING 7879
SWIDTH 540 0
DWIDTH 6 0
BBX 6 11 0 -1
BITMAP
70
C8
F8
FC
C0
F0
F0
C0
FC
F8
30
ENDCHAR
STARTCHAR 1EC8
ENCODING 7880
SWIDTH 180 0
DWIDTH 2 0
BBX 2 10 0 0
BITMAP
C0
40
C0
C0
C0
C0
C0
C0
C0
C0
ENDCHAR
STARTCHAR 1EC9
ENCODING 7881
SWIDTH 180 0
DWIDTH 2 0
BBX 2 10 0 0
BITMAP
C0
40
C0
C0
C0
C0
C0
C0
C0
C0
ENDCHAR
STARTCHAR 1ECA
ENCODING 7882
SWIDTH 180 0
DWIDTH 2 0
BBX 2 9 0 -1
BITMAP
C0
C0
C0
C0
C0
C0
C0
C0
C0
ENDCHAR
STARTCHAR 1ECB
ENCODING 7883
SWIDTH 180 0
DWIDTH 2 0
BBX 2 9 0 -1
BITMAP
C0
C0
C0
C0
C0
C0
C0
C0
C0
ENDCHAR
STARTCHAR 1ECC
ENCODING 7884
SWIDTH 540 0
DWIDTH 6 0
BBX 6 9 0 -1
BITMAP
7C
FC
C4
C4
C4
C4
FC
7C
30
ENDCHAR
STARTCHAR 1ECD
ENCODING 7885
SWIDTH 540 0
DWIDTH 6 0
BBX 6 9 0 -1
BITMAP
7C
FC
C4
C4
C4
C4
FC
7C
30
ENDCHAR
STARTCHAR 1ECE
ENCODING 7886
SWIDTH 540 0
DWIDTH 6 0
BBX 6 10 0 0
BITMAP
38
10
7C
FC
C4
C4
C4
C4
FC
7C
ENDCHAR
STARTCHAR 1ECF
ENCODING 7887
SWIDTH 540 0
DWIDTH 6 0
BBX 6 10 0 0
BITMAP
38
10
7C
FC
C4
C4
C4
C4
FC
7C
ENDCHAR
STARTCHAR 1ED0
ENCODING 7888
SWIDTH 540 0
DWIDTH 6 0
BBX 6 11 0 0
BITMAP
38
38
44
7C
FC
C4
C4
C4
C4
FC
7C
ENDCHAR
STARTCHAR 1ED1
ENCODING 7889
SWIDTH 540 0
DWIDTH 6 0
BBX 6 11 0 0
BITMAP
38
38
44
7C
FC
C4
C4
C4
C4
FC
7C
ENDCHAR
STARTCHAR 1ED2
ENCODING 7890
SWIDTH 540 0
DWIDTH 6 0
BBX 6 11 0 0
BITMAP
3C
38
44
7C
FC
C4
C4
C4
C4
FC
7C
ENDCHAR
STARTCHAR 1ED3
ENCODING 7891
SWIDTH 540 0
DWIDTH 6 0
BBX 6 11 0 0
BITMAP
3C
38
44
7C
FC
C4
C4
C4
C4
FC
7C
ENDCHAR
STARTCHAR 1ED4
ENCODING 7892
SWIDTH 540 0
DWIDTH 6 0
BBX 6 12 0 0
BITMAP
10
10
38
44
7C
FC
C4
C4
C4
C4
FC
7C
ENDCHAR
STARTCHAR 1ED5
ENCODING 7893
SWIDTH 540 0
DWIDTH 6 0
BBX 6 12 0 0
BITMAP
10
10
38
44
7C
FC
C4
C4
C4
C4
FC
7C
ENDCHAR
STARTCHAR 1ED6
ENCODING 7894
SWIDTH 540 0
DWIDTH 6 0
BBX 6 11 0 1
BITMAP
7C
38
44
7C
FC
C4
C4
C4
C4
FC
7C
ENDCHAR
STARTCHAR 1ED7
ENCODING 7895
SWIDTH 540 0
DWIDTH 6 0
BBX 6 11 0 1
BITMAP
7C
38
44
7C
FC
C4
C4
C4
C4
FC
7C
ENDCHAR
STARTCHAR 1ED8
ENCODING 7896
SWIDTH 540 0
DWIDTH 6 0
BBX 6 11 0 -1
BITMAP
38
44
7C
FC
C4
C4
C4
C4
FC
7C
30
ENDCHAR
STARTCHAR 1ED9
ENCODING 7897
SWIDTH 540 0
DWIDTH 6 0
BBX 6 11 0 -1
BITMAP
38
44
7C
FC
C4
C4
C4
C4
FC
7C
30
ENDCHAR
STARTCHAR 1EDA
ENCODING 7898
SWIDTH 540 0
DWIDTH 6 0
BBX 7 9 0 0
BITMAP
7A
7E
FC
C4
C4
C4
C4
FC
7C
ENDCHAR
STARTCHAR 1EDB
ENCODING 7899
SWIDTH 540 0
DWIDTH 6 0
BBX 7 9 0 0
BITMAP
7A
7E
FC
C4
C4
C4
C4
FC
7C
ENDCHAR
STARTCHAR 1EDC
ENCODING 7900
SWIDTH 540 0
DWIDTH 6 0
BBX 7 9 0 0
BITMAP
3A
7E
FC
C4
C4
C4
C4
FC
7C
ENDCHAR
STARTCHAR 1EDD
ENCODING 7901
SWIDTH 540 0
DWIDTH 6 0
BBX 7 9 0 0
BITMAP
3A
7E
FC
C4
C4
C4
C4
FC
7C
ENDCHAR
STARTCHAR 1EDE
ENCODING 7902
SWIDTH 540 0
DWIDTH 6 0
BBX 7 10 0 0
BITMAP
38
12
7E
FC
C4
C4
C4
C4
FC
7C
ENDCHAR
STARTCHAR 1EDF
ENCODING 7903
SWIDTH 540 0
DWIDTH 6 0
BBX 7 10 0 0
BITMAP
38
12
7E
FC
C4
C4
C4
C4
FC
7C
ENDCHAR
STARTCHAR 1EE0
ENCODING 7904
SWIDTH 540 0
DWIDTH 6 0
BBX 7 10 0 0
BITMAP
7C
02
7E
FC
C4
C4
C4
C4
FC
7C
ENDCHAR
STARTCHAR 1EE1
ENCODING 7905
SWIDTH 540 0
DWIDTH 6 0
BBX 7 10 0 0
BITMAP
7C
02
7E
FC
C4
C4
C4
C4
FC
7C
ENDCHAR
STARTCHAR 1EE2
ENCODING 7906
SWIDTH 540 0
DWIDTH 6 0
BBX 7 10 0 -1
BITMAP
02
7E
FC
C4
C4
C4
C4
FC
7C
30
ENDCHAR
STARTCHAR 1EE3
ENCODING 7907
SWIDTH 540 0
DWIDTH 6 0
BBX 7 10 0 -1
BITMAP
02
7E
FC
C4
C4
C4
C4
FC
7C
30
ENDCHAR
STARTCHAR 1EE4
ENCODING 7908
SWIDTH 540 0
DWIDTH 6 0
BBX 6 9 0 -1
BITMAP
C4
C4
C4
C4
C4
C4
FC
7C
30
ENDCHAR
STARTCHAR 1EE5
ENCODING 7909
SWIDTH 540 0
DWIDTH 6 0
BBX 6 9 0 -1
BITMAP
C4
C4
C4
C4
C4
C4
FC
7C
30
ENDCHAR
STARTCHAR 1EE6
ENCODING 7910
SWIDTH 540 0
DWIDTH 6 0
BBX 6 10 0 0
BITMAP
38
10
C4
C4
C4
C4
C4
C4
FC
7C
ENDCHAR
STARTCHAR 1EE7
ENCODING 7911
SWIDTH 540 0
DWIDTH 6 0
BBX 6 10 0 0
BITMAP
38
10
C4
C4
C4
C4
C4
C4
FC
7C
ENDCHAR
STARTCHAR 1EE8
ENCODING 7912
SWIDTH 540 0
DWIDTH 6 0
BBX 7 9 0 0
BITMAP
7A
C6
C4
C4
C4
C4
C4
FC
7C
ENDCHAR
STARTCHAR 1EE9
ENCODING 7913
SWIDTH 540 0
DWIDTH 6 0
BBX 7 9 0 0
BITMAP
7A
C6
C4
C4
C4
C4
C4
FC
7C
ENDCHAR
STARTCHAR 1EEA
ENCODING 7914
SWIDTH 540 0
DWIDTH 6 0
BBX 7 9 0 0
BITMAP
3A
C6
C4
C4
C4
C4
C4
FC
7C
ENDCHAR
STARTCHAR 1EEB
ENCODING 7915
SWIDTH 540 0
DWIDTH 6 0
BBX 7 9 0 0
BITMAP
3A
C6
C4
C4
C4
C4
C4
FC
7C
ENDCHAR
STARTCHAR 1EEC
ENCODING 7916
SWIDTH 540 0
DWIDTH 6 0
BBX 7 10 0 0
BITMAP
38
12
C6
C4
C4
C4
C4
C4
FC
7C
ENDCHAR
STARTCHAR 1EED
ENCODING 7917
SWIDTH 540 0
DWIDTH 6 0
BBX 7 10 0 0
BITMAP
38
12
C6
C4
C4
C4
C4
C4
FC
7C
ENDCHAR
STARTCHAR 1EEE
ENCODING 7918
SWIDTH 540 0
DWIDTH 6 0
BBX 7 10 0 0
BITMAP
7C
02
C6
C4
C4
C4
C4
C4
FC
7C
ENDCHAR
STARTCHAR 1EEF
ENCODING 7919
SWIDTH 540 0
DWIDTH 6 0
BBX 7 10 0 0
BITMAP
7C
02
C6
C4
C4
C4
C4
C4
FC
7C
ENDCHAR
STARTCHAR 1EF0
ENCODING 7920
SWIDTH 540 0
DWIDTH 6 0
BBX 7 10 0 -1
BITMAP
02
C6
C4
C4
C4
C4
C4
FC
7C
30
ENDCHAR
STARTCHAR 1EF1
ENCODING 7921
SWIDTH 540 0
DWIDTH 6 0
BBX 7 10 0 -1
BITMAP
02
C6
C4
C4
C4
C4
C4
FC
7C
30
ENDCHAR
STARTCHAR 1EF2
ENCODING 7922
SWIDTH 450 0
DWIDTH 5 0
BBX 5 9 0 0
BITMAP
78
C8
D8
58
70
30
20
20
20
ENDCHAR
STARTCHAR 1EF3
ENCODING 7923
SWIDTH 450 0
DWIDTH 5 0
BBX 5 9 0 0
BITMAP
78
C8
D8
58
70
30
20
20
20
ENDCHAR
STARTCHAR 1EF4
ENCODING 7924
SWIDTH 450 0
DWIDTH 5 0
BBX 5 9 0 -1
BITMAP
C8
D8
58
70
30
20
20
20
20
ENDCHAR
STARTCHAR 1EF5
ENCODING 7925
SWIDTH 450 0
DWIDTH 5 0
BBX 5 9 0 -1
BITMAP
C8
D8
58
70
30
20
20
20
20
ENDCHAR
STARTCHAR 1EF6
ENCODING 7926
SWIDTH 450 0
DWIDTH 5 0
BBX 5 10 0 0
BITMAP
30
20
C8
D8
58
70
30
20
20
20
ENDCHAR
STARTCHAR 1EF7
ENCODING 7927
SWIDTH 450 0
DWIDTH 5 0
BBX 5 10 0 0
BITMAP
30
20
C8
D8
58
70
30
20
20
20
ENDCHAR
STARTCHAR 1EF8
ENCODING 7928
SWIDTH 450 0
DWIDTH 5 0
BBX 5 10 0 0
BITMAP
68
90
C8
D8
58
70
30
20
20
20
ENDCHAR
STARTCHAR 1EF9
ENCODING 7929
SWIDTH 450 0
DWIDTH 5 0
BBX 5 10 0 0
BITMAP
68
90
C8
D8
58
70
30
20
20
20
ENDCHAR
STARTCHAR 2013
ENCODING 8211
SWIDTH 450 0
DWIDTH 5 0
BBX 5 1 0 3
BITMAP
F8
ENDCHAR
STARTCHAR 2014
ENCODING 8212
SWIDTH 990 0
DWIDTH 11 0
BBX 11 1 0 3
BITMAP
FFE0
ENDCHAR
STARTCHAR 2018
ENCODING 8216
SWIDTH 180 0
DWIDTH 2 0
BBX 2 3 0 5
BITMAP
40
80
80
ENDCHAR
STARTCHAR 2019
ENCODING 8217
SWIDTH 180 0
DWIDTH 2 0
BBX 2 3 0 5
BITMAP
40
40
C0
ENDCHAR
STARTCHAR 201A
ENCODING 8218
SWIDTH 90 0
DWIDTH 1 0
BBX 2 3 0 -1
BITMAP
80
C0
80
ENDCHAR
STARTCHAR 201C
ENCODING 8220
SWIDTH 360 0
DWIDTH 4 0
BBX 4 3 0 5
BITMAP
50
A0
A0
ENDCHAR
STARTCHAR 201D
ENCODING 8221
SWIDTH 360 0
DWIDTH 4 0
BBX 4 3 0 5
BITMAP
50
50
E0
ENDCHAR
STARTCHAR 201E
ENCODING 8222
SWIDTH 360 0
DWIDTH 4 0
BBX 4 3 0 -1
BITMAP
50
50
E0
ENDCHAR
STARTCHAR 2020
ENCODING 8224
SWIDTH 450 0
DWIDTH 5 0
BBX 6 8 0 0
BITMAP
20
20
FC
FC
20
20
20
20
ENDCHAR
STARTCHAR 2021
ENCODING 8225
SWIDTH 450 0
DWIDTH 5 0
BBX 6 8 0 0
BITMAP
20
20
FC
FC
20
FC
20
20
ENDCHAR
STARTCHAR 2022
ENCODING 8226
SWIDTH 180 0
DWIDTH 2 0
BBX 2 2 0 3
BITMAP
C0
C0
ENDCHAR
STARTCHAR 2026
ENCODING 8230
SWIDTH 450 0
DWIDTH 5 0
BBX 5 1 0 0
BITMAP
F8
ENDCHAR
STARTCHAR 2030
ENCODING 8240
SWIDTH 810 0
DWIDTH 9 0
BBX 9 8 0 0
BITMAP
6400
A800
E800
1000
1000
2D80
2D80
4D80
ENDCHAR
STARTCHAR 2039
ENCODING 8249
SWIDTH 180 0
DWIDTH 2 0
BBX 3 5 0 1
BITMAP
20
40
80
60
20
ENDCHAR
STARTCHAR 203A
ENCODING 8250
SWIDTH 180 0
DWIDTH 2 0
BBX 3 5 0 1
BITMAP
80
40
20
C0
80
ENDCHAR
STARTCHAR 2044
ENCODING 8260
SWIDTH 270 0
DWIDTH 3 0
BBX 4 8 0 0
BITMAP
10
10
20
20
40
40
80
80
ENDCHAR
STARTCHAR 20AB
ENCODING 8363
SWIDTH 450 0
DWIDTH 5 0
BBX 5 8 0 0
BITMAP
F0
F8
D8
D8
D8
F8
00
F8
ENDCHAR
STARTCHAR 20AC
ENCODING 8364
SWIDTH 540 0
DWIDTH 6 0
BBX 6 8 0 0
BITMAP
7C
7C
60
F0
F0
60
7C
7C
ENDCHAR
STARTCHAR 2122
ENCODING 8482
SWIDTH 540 0
DWIDTH 6 0
BBX 7 4 0 4
BITMAP
FC
5E
5A
52
ENDCHAR
STARTCHAR 215B
ENCODING 8539
SWIDTH 630 0
DWIDTH 7 0
BBX 7 8 0 0
BITMAP
48
C8
50
50
1E
2A
2E
4E
ENDCHAR
STARTCHAR 215C
ENCODING 8540
SWIDTH 630 0
DWIDTH 7 0
BBX 7 8 0 0
BITMAP
E4
28
68
68
16
1A
2E
26
ENDCHAR
STARTCHAR 215D
ENCODING 8541
SWIDTH 630 0
DWIDTH 7 0
BBX 7 8 0 0
BITMAP
E4
84
68
68
16
1A
2E
26
ENDCHAR
STARTCHAR 215E
ENCODING 8542
SWIDTH 630 0
DWIDTH 7 0
BBX 7 8 0 0
BITMAP
E8
28
50
50
2E
2A
4E
4E
ENDCHAR
STARTCHAR 2190
ENCODING 8592
SWIDTH 360 0
DWIDTH 4 0
BBX 4 4 0 1
BITMAP
40
F0
C0
40
ENDCHAR
STARTCHAR 2191
ENCODING 8593
SWIDTH 360 0
DWIDTH 4 0
BBX 4 5 0 1
BITMAP
60
F0
60
60
60
ENDCHAR
STARTCHAR 2192
ENCODING 8594
SWIDTH 360 0
DWIDTH 4 0
BBX 4 4 0 1
BITMAP
30
F0
10
20
ENDCHAR
STARTCHAR 2193
ENCODING 8595
SWIDTH 360 0
DWIDTH 4 0
BBX 4 5 0 1
BITMAP
60
60
60
F0
60
ENDCHAR
STARTCHAR 2194
ENCODING 8596
SWIDTH 450 0
DWIDTH 5 0
BBX 6 4 0 1
BITMAP
48
FC
CC
48
ENDCHAR
STARTCHAR 2195
ENCODING 8597
SWIDTH 360 0
DWIDTH 4 0
BBX 4 6 0 1
BITMAP
60
F0
60
60
F0
60
ENDCHAR
STARTCHAR 2196
ENCODING 8598
SWIDTH 360 0
DWIDTH 4 0
BBX 4 4 0 1
BITMAP
60
E0
B0
10
ENDCHAR
STARTCHAR 2197
ENCODING 8599
SWIDTH 360 0
DWIDTH 4 0
BBX 3 3 1 1
BITMAP
E0
60
A0
ENDCHAR
STARTCHAR 2198
ENCODING 8600
SWIDTH 360 0
DWIDTH 4 0
BBX 4 4 0 1
BITMAP
D0
70
30
60
ENDCHAR
STARTCHAR 2199
ENCODING 8601
SWIDTH 360 0
DWIDTH 4 0
BBX 4 4 0 1
BITMAP
10
A0
C0
60
ENDCHAR
STARTCHAR 220F
ENCODING 8719
SWIDTH 450 0
DWIDTH 5 0
BBX 5 8 0 0
BITMAP
F8
50
50
50
50
50
50
50
ENDCHAR
STARTCHAR 2211
ENCODING 8721
SWIDTH 360 0
DWIDTH 4 0
BBX 4 8 0 0
BITMAP
F0
C0
40
60
60
40
C0
F0
ENDCHAR
STARTCHAR 2212
ENCODING 8722
SWIDTH 360 0
DWIDTH 4 0
BBX 5 1 0 3
BITMAP
F8
ENDCHAR
STARTCHAR 221A
ENCODING 8730
SWIDTH 450 0
DWIDTH 5 0
BBX 9 10 0 0
BITMAP
0780
0400
0C00
0800
0800
0800
C800
2800
2800
3800
ENDCHAR
STARTCHAR 2260
ENCODING 8800
SWIDTH 360 0
DWIDTH 4 0
BBX 5 5 0 1
BITMAP
20
F8
20
F8
40
ENDCHAR
STARTCHAR 2264
ENCODING 8804
SWIDTH 360 0
DWIDTH 4 0
BBX 4 7 0 1
BITMAP
30
E0
80
70
10
00
F0
ENDCHAR
STARTCHAR 2265
ENCODING 8805
SWIDTH 360 0
DWIDTH 4 0
BBX 4 8 0 0
BITMAP
80
E0
30
10
70
C0
00
F0
ENDCHAR
ENDFONT
